HIERARCHY
ROOT Hips
{
    OFFSET 0.000000 0.000000 0.000000
    CHANNELS 6 Xposition Yposition Zposition Zrotation Xrotation Yrotation
    JOINT Spine
    {
        OFFSET -0.000000 14.517291 0.000000
        CHANNELS 3 Zrotation Xrotation Yrotation
        JOINT Spine1
        {
            OFFSET -0.000000 37.558300 0.000000
            CHANNELS 3 Zrotation Xrotation Yrotation
            JOINT Neck
            {
                OFFSET -0.000000 37.404057 3.400369
                CHANNELS 3 Zrotation Xrotation Yrotation
                JOINT Head
                {
                    OFFSET -0.000000 24.785618 -3.540803
                    CHANNELS 3 Zrotation Xrotation Yrotation
                    End Site
                    {
                        OFFSET -0.000000 35.408028 0.000000
                    }
                }
            }
            JOINT LeftShoulder
            {
                OFFSET 6.992933 33.973492 -0.192664
                CHANNELS 3 Zrotation Xrotation Yrotation
                JOINT LeftArm
                {
                    OFFSET 21.527611 0.000000 0.000000
                    CHANNELS 3 Zrotation Xrotation Yrotation
                    JOINT LeftForeArm
                    {
                        OFFSET 56.353916 0.000000 0.000000
                        CHANNELS 3 Zrotation Xrotation Yrotation
                        JOINT LeftHand
                        {
                            OFFSET 47.774071 0.000000 0.000000
                            CHANNELS 3 Zrotation Xrotation Yrotation
                            End Site
                            {
                                OFFSET 26.556021 0.000000 0.000000
                            }
                        }
                    }
                }
            }
            JOINT RightShoulder
            {
                OFFSET -7.065357 33.973492 -0.192664
                CHANNELS 3 Zrotation Xrotation Yrotation
                JOINT RightArm
                {
                    OFFSET -21.527611 0.000000 0.000000
                    CHANNELS 3 Zrotation Xrotation Yrotation
                    JOINT RightForeArm
                    {
                        OFFSET -56.353916 0.000000 0.000000
                        CHANNELS 3 Zrotation Xrotation Yrotation
                        JOINT RightHand
                        {
                            OFFSET -47.774071 0.000000 0.000000
                            CHANNELS 3 Zrotation Xrotation Yrotation
                            End Site
                            {
                                OFFSET -26.556021 0.000000 0.000000
                            }
                        }
                    }
                }
            }
        }
    }
    JOINT LeftUpLeg
    {
        OFFSET 17.704014 0.000000 0.000000
        CHANNELS 3 Zrotation Xrotation Yrotation
        JOINT LeftLeg
        {
            OFFSET -0.000000 -81.181816 0.000000
            CHANNELS 3 Zrotation Xrotation Yrotation
            JOINT LeftFoot
            {
                OFFSET -0.000000 -62.821102 0.000000
                CHANNELS 3 Zrotation Xrotation Yrotation
                JOINT LeftToeBase
                {
                    OFFSET -0.000000 -11.507608 26.556021
                    CHANNELS 3 Zrotation Xrotation Yrotation
                    End Site
                    {
                        OFFSET -0.000000 0.000000 7.081605
                    }
                }
            }
        }
    }
    JOINT RightUpLeg
    {
        OFFSET -17.704014 0.000000 0.000000
        CHANNELS 3 Zrotation Xrotation Yrotation
        JOINT RightLeg
        {
            OFFSET -0.000000 -81.181816 0.000000
            CHANNELS 3 Zrotation Xrotation Yrotation
            JOINT RightFoot
            {
                OFFSET -0.000000 -62.821102 0.000000
                CHANNELS 3 Zrotation Xrotation Yrotation
                JOINT RightToeBase
                {
                    OFFSET -0.000000 -11.507608 26.556021
                    CHANNELS 3 Zrotation Xrotation Yrotation
                    End Site
                    {
                        OFFSET -0.000000 0.000000 7.081605
                    }
                }
            }
        }
    }
}
MOTION
Frames:    11
Frame Time:    0.008333
21.833811    148.435013    51.096142    4.758808    -5.149423    -67.676315    6.680560    -0.404552    -0.150555    3.502216    2.239553    -0.127182    21.180609    2.686301    13.405092    -18.508068    7.021894    9.797068    11.073126    3.913062    -15.175205    -12.572750    -0.555001    -19.204161    18.882235    -4.080670    -44.200321    -5.718482    5.943401    -43.598873    -12.016006    -4.742091    -5.596756    27.308834    -30.002043    40.180061    8.359675    -18.275206    103.728455    16.199482    -23.991796    31.259022    26.083790    -22.198597    13.940168    -25.943047    35.195049    -2.636558    -8.948769    -11.162904    48.069355    0.000000    0.000000    0.000000    -37.190948    -15.423270    -19.654432    7.875601    41.719063    -8.429120    15.975438    -13.707002    1.761425    0.000000    0.000000    0.000000    
21.852566    148.528870    51.070534    4.723547    -4.894411    -67.725105    6.609758    -0.374273    -0.127720    3.484304    2.187987    -0.117365    21.230942    2.680605    13.408318    -18.502007    6.964850    9.783965    11.124479    3.869119    -15.141285    -12.602870    -0.593518    -19.190567    18.847681    -4.076451    -44.244911    -5.757861    5.959157    -43.628395    -11.961235    -4.728770    -5.614109    27.360435    -30.081417    40.211895    8.458001    -18.125544    103.738907    16.206457    -23.962784    31.267954    26.341291    -22.225800    14.070069    -25.861000    35.180378    -2.712874    -8.948733    -11.128549    48.068882    0.000000    0.000000    0.000000    -36.850925    -15.438669    -19.716047    7.798192    41.422264    -8.400160    15.848927    -13.439033    1.640283    0.000000    0.000000    0.000000    
21.877298    148.612549    51.060177    4.710259    -4.666801    -67.776817    6.477363    -0.357639    -0.112161    3.550853    2.132938    -0.110882    21.216990    2.710174    13.380721    -18.514454    6.874114    9.746684    11.073264    3.830780    -15.160147    -12.582829    -0.588814    -19.112112    18.806433    -4.108021    -44.264774    -5.647788    5.871091    -43.641743    -11.986305    -4.749780    -5.555458    27.337881    -30.083704    40.134159    8.485642    -18.079279    103.790428    16.040422    -24.008236    31.233702    26.562965    -22.263748    14.206461    -25.781160    35.179291    -2.786963    -8.955677    -11.123739    48.062958    0.000000    0.000000    0.000000    -36.578400    -15.423003    -19.773994    7.731367    41.145264    -8.391918    15.824926    -13.246234    1.708864    0.000000    0.000000    0.000000    
21.892708    148.698792    51.035370    4.674776    -4.433308    -67.843712    6.354945    -0.317712    -0.068392    3.598088    2.081576    -0.095448    21.176367    2.607767    13.399299    -18.393600    6.907269    9.767048    11.065434    3.838809    -15.144616    -12.532470    -0.805063    -19.142855    18.631897    -3.949219    -44.294971    -5.561037    5.929747    -43.678768    -11.981482    -4.696377    -5.596983    27.359905    -30.091858    40.189297    8.420911    -18.109217    103.754280    16.017672    -23.962877    31.212496    26.806019    -22.272207    14.349802    -25.696917    35.172634    -2.858163    -8.962703    -11.106833    48.043915    0.000000    0.000000    0.000000    -36.282730    -15.400878    -19.766588    7.714095    40.870628    -8.409118    15.797195    -13.065802    1.732478    0.000000    0.000000    0.000000    
21.912722    148.797195    50.999302    4.652718    -4.170805    -67.918610    6.257183    -0.289729    -0.047667    3.619959    2.008507    -0.084759    21.225336    2.683256    13.377380    -18.422899    6.747611    9.723868    11.083032    3.810323    -15.143123    -12.559386    -0.580473    -19.026424    18.895113    -4.225048    -44.350822    -5.720797    5.837049    -43.638474    -11.947272    -4.654745    -5.571468    27.373941    -30.073872    40.198021    8.444371    -18.162933    103.777008    16.181717    -23.999910    31.238146    27.078030    -22.301086    14.515045    -25.600626    35.165119    -2.945343    -8.988501    -11.094589    48.045910    0.000000    0.000000    0.000000    -35.959393    -15.406070    -19.758276    7.696481    40.580296    -8.403105    15.767838    -12.850714    1.701562    0.000000    0.000000    0.000000    
21.933369    148.892685    50.969337    4.635525    -3.922122    -67.988121    6.168981    -0.258765    0.000794    3.604010    1.933452    -0.076816    21.255630    2.688422    13.379021    -18.365828    6.650033    9.711604    11.113049    3.831330    -15.134151    -12.531169    -1.032148    -19.060635    18.557808    -3.859400    -44.442383    -5.459021    5.969635    -43.568146    -11.884481    -4.687326    -5.575534    27.356432    -30.031925    40.171207    8.407104    -18.148695    103.770752    16.107468    -23.961050    31.233570    27.322826    -22.334991    14.675547    -25.482241    35.168449    -3.042848    -9.021288    -11.078511    48.043949    0.000000    0.000000    0.000000    -35.653732    -15.394800    -19.774998    7.667060    40.273724    -8.440393    15.750110    -12.636280    1.762980    0.000000    0.000000    0.000000    
21.946541    148.987122    50.933350    4.598517    -3.685329    -68.080299    6.006616    -0.204622    0.025876    3.706338    1.861420    -0.044486    21.217020    2.684573    13.357735    -18.275625    6.549946    9.685065    11.068515    3.815414    -15.142980    -12.493387    -0.806933    -18.992956    18.717224    -4.109196    -44.433495    -5.591887    5.835101    -43.505573    -11.897025    -4.693998    -5.530360    27.328255    -29.968208    40.089756    8.370881    -18.231041    103.795898    16.212622    -23.976400    31.220575    27.567635    -22.334972    14.837548    -25.363932    35.165024    -3.142859    -9.065453    -11.077644    48.055271    0.000000    0.000000    0.000000    -35.339066    -15.378905    -19.725588    7.660810    39.965816    -8.544378    15.859566    -12.382037    1.834119    0.000000    0.000000    0.000000    
21.956352    149.088287    50.888107    4.569773    -3.430171    -68.173805    5.922729    -0.178264    0.078207    3.681200    1.810723    -0.033342    21.281261    2.729275    13.361204    -18.270452    6.392055    9.664021    11.106914    3.795176    -15.121125    -12.495146    -1.106484    -18.974323    18.518295    -3.876604    -44.580765    -5.461699    5.959031    -43.491409    -11.829967    -4.640074    -5.542758    27.341293    -29.962761    40.117287    8.417713    -18.261978    103.839966    16.195704    -24.082949    31.154453    27.829367    -22.340769    14.995246    -25.240671    35.145340    -3.225209    -9.102753    -11.061944    48.056686    0.000000    0.000000    0.000000    -34.999664    -15.383952    -19.661518    7.651564    39.667046    -8.594978    15.824656    -12.177687    1.837028    0.000000    0.000000    0.000000    
21.975508    149.192993    50.843681    4.542836    -3.174917    -68.272118    5.814723    -0.135277    0.132433    3.693146    1.744743    -0.014382    21.301733    2.714683    13.332687    -18.197422    6.287917    9.618256    11.144091    3.779179    -15.107333    -12.489191    -0.901924    -18.965374    18.786573    -4.086121    -44.495831    -5.615914    5.910801    -43.542774    -11.786561    -4.645626    -5.527545    27.391729    -30.023798    40.109253    8.476021    -18.142624    103.857239    16.096872    -24.065624    31.155769    28.082275    -22.354393    15.129224    -25.117432    35.128319    -3.322636    -9.137176    -11.059338    48.099228    0.000000    0.000000    0.000000    -34.662231    -15.396348    -19.628588    7.614788    39.368046    -8.632294    15.798832    -11.940429    1.872274    0.000000    0.000000    0.000000    
21.995916    149.288040    50.802433    4.502324    -2.945339    -68.379379    5.692494    -0.053802    0.180895    3.704508    1.661748    0.006262    21.308189    2.734931    13.324289    -18.127024    6.131550    9.593760    11.173216    3.764028    -15.105062    -12.500514    -1.051258    -18.928160    18.703861    -3.996228    -44.567028    -5.485357    5.930921    -43.604614    -11.759833    -4.550387    -5.586890    27.431494    -29.914618    40.199448    8.379932    -18.331306    103.841537    16.183071    -24.094484    31.253397    28.308897    -22.349611    15.238835    -24.991150    35.112961    -3.394422    -9.166081    -11.053589    48.128830    0.000000    0.000000    0.000000    -34.357166    -15.398937    -19.608217    7.595706    39.095665    -8.592405    15.727572    -11.746690    1.846182    0.000000    0.000000    0.000000    
22.011250    149.388474    50.750149    4.462862    -2.701411    -68.495445    5.571586    0.029277    0.237594    3.740450    1.552704    0.028756    21.369001    2.764816    13.310634    -18.161671    6.032396    9.558432    11.160683    3.768378    -15.118108    -12.480811    -1.057600    -18.871140    18.714857    -4.065196    -44.638855    -5.501129    5.879757    -43.476994    -11.730976    -4.557543    -5.552838    27.472557    -29.959566    40.170456    8.457286    -18.213619    103.883499    16.146973    -24.094860    31.216047    28.560823    -22.337032    15.327984    -24.889902    35.077045    -3.489338    -9.201150    -11.058017    48.201084    0.000000    0.000000    0.000000    -34.029884    -15.404028    -19.581261    7.573774    38.804241    -8.591022    15.685955    -11.530673    1.862392    0.000000    0.000000    0.000000    
